nColumns=19
nRows=69
DataType=double
version=3
OpenSimVersion=4.1
endheader
time	ground_force_1_vx	ground_force_1_vy	ground_force_1_vz	ground_force_1_px	ground_force_1_py	ground_force_1_pz	ground_force_1_mx	ground_force_1_my	ground_force_1_mz	ground_force_2_vx	ground_force_2_vy	ground_force_2_vz	ground_force_2_px	ground_force_2_py	ground_force_2_pz	ground_force_2_mx	ground_force_2_my	ground_force_2_mz
0.2	-10.224	28.2135	-4.54893	1.13084	0	-0.275259	-0	0.323981	-0	0	0	0	-0.0003741	0	-0.000293211	0	0	0
0.21	-15.8358	83.2719	-12.1266	1.14038	0	-0.281292	-0	1.59342	-0	0	0	0	-0.0003741	0	-0.000293211	0	0	0
0.22	-8.8325	201.428	-22.1891	1.13463	0	-0.286905	-0	3.02233	-0	0	0	0	-0.0003741	0	-0.000293211	0	0	0
0.23	11.0277	392.204	-31.3271	1.12245	0	-0.292281	-0	4.19044	-0	0	0	0	-0.0003741	0	-0.000293211	0	0	0
0.24	18.5004	621.442	-35.1493	1.11351	0	-0.296755	-0	4.74195	-0	0	0	0	-0.0003741	0	-0.000293211	0	0	0
0.25	-3.19427	807.603	-33.7366	1.11249	0	-0.299501	-0	4.53958	-0	0	0	0	-0.0003741	0	-0.000293211	0	0	0
0.26	-46.0681	912.625	-32.8521	1.11567	0	-0.301548	-0	3.69339	-0	0	0	0	-0.0003741	0	-0.000293211	0	0	0
0.27	-91.4334	990.647	-35.8087	1.11718	0	-0.303889	-0	2.45895	-0	0	0	0	-0.0003741	0	-0.000293211	0	0	0
0.28	-121.908	1095.72	-39.0483	1.11362	0	-0.305526	-0	1.11716	-0	0	0	0	-0.0003741	0	-0.000293211	0	0	0
0.29	-133.869	1225.45	-39.5913	1.10491	0	-0.306181	0	-0.080828	0	0	0	0	-0.0003741	0	-0.000293211	0	0	0
0.3	-132.402	1346.62	-39.3361	1.09399	0	-0.306551	0	-0.933788	0	0	0	0	-0.0003741	0	-0.000293211	0	0	0
0.31	-125.196	1438.77	-40.4838	1.08276	0	-0.306754	0	-1.32422	0	0	0	0	-0.0003741	0	-0.000293211	0	0	0
0.32	-115.093	1500.05	-42.5624	1.0708	0	-0.306718	0	-1.251	0	0	0	0	-0.0003741	0	-0.000293211	0	0	0
0.33	-100.975	1533.72	-44.3561	1.05792	0	-0.306605	0	-0.828039	0	0	0	0	-0.0003741	0	-0.000293211	0	0	0
0.34	-82.536	1542.44	-45.5092	1.04457	0	-0.306635	0	-0.249156	0	0	0	0	-0.0003741	0	-0.000293211	0	0	0
0.35	-61.2674	1527.31	-45.6343	1.03124	0	-0.306859	-0	0.263109	-0	0	0	0	-0.0003741	0	-0.000293211	0	0	0
0.36	-39.5252	1487.98	-43.6503	1.01805	0	-0.307277	-0	0.514794	-0	0	0	0	-0.0003741	0	-0.000293211	0	0	0
0.37	-18.3566	1425.9	-38.6856	1.00488	0	-0.30797	-0	0.395639	-0	0	0	0	-0.0003741	0	-0.000293211	0	0	0
0.38	3.44842	1345.82	-30.9144	0.991421	0	-0.309042	0	-0.085997	0	0	0	0	-0.0003741	0	-0.000293211	0	0	0
0.39	26.0349	1251.31	-21.3456	0.97725	0	-0.310415	0	-0.805874	0	0	0	0	-0.0003741	0	-0.000293211	0	0	0
0.4	46.397	1143.92	-11.3251	0.962751	0	-0.311971	0	-1.56577	0	0	0	0	-0.0003741	0	-0.000293211	0	0	0
0.41	62.4213	1026.59	-2.12512	0.948448	0	-0.313657	0	-2.15883	0	0	0	0	-0.0003741	0	-0.000293211	0	0	0
0.42	74.6865	904.585	5.19948	0.933989	0	-0.315483	0	-2.43463	0	0	0	0	-0.0003741	0	-0.000293211	0	0	0
0.43	84.3385	782.876	10.1537	0.918702	0	-0.317441	0	-2.34172	0	0	0	0	-0.0003741	0	-0.000293211	0	0	0
0.44	89.9464	664.843	13.1916	0.903354	0	-0.319294	0	-1.93279	0	0	0	0	-0.0003741	0	-0.000293211	0	0	0
0.45	89.9324	554.042	15.0553	0.888918	0	-0.320773	0	-1.33322	0	0	0	0	-0.0003741	0	-0.000293211	0	0	0
0.46	84.8721	453.878	16.0758	0.875568	0	-0.321842	0	-0.691475	0	0	0	0	-0.0003741	0	-0.000293211	0	0	0
0.47	76.719	366.053	16.4327	0.863026	0	-0.322422	0	-0.133687	0	0	0	0	-0.0003741	0	-0.000293211	0	0	0
0.48	67.7952	290.352	16.2912	0.850802	0	-0.322386	-0	0.265639	-0	0	0	0	-0.0003741	0	-0.000293211	0	0	0
0.49	59.9237	225.959	15.5817	0.83848	0	-0.321692	-0	0.493596	-0	0	0	0	-0.0003741	0	-0.000293211	0	0	0
0.5	52.494	172.151	14.2422	0.826641	0	-0.320746	-0	0.591477	-0	0	0	0	-0.0003741	0	-0.000293211	0	0	0
0.51	44.0234	128.285	12.5621	0.816811	0	-0.319344	-0	0.636838	-0	0	0	0	-0.0003741	0	-0.000293211	0	0	0
0.52	34.4409	93.3444	10.8368	0.810952	0	-0.316035	-0	0.721089	-0	0	0	0	-0.0003741	0	-0.000293211	0	0	0
0.53	24.527	65.6303	9.05904	0.808498	0	-0.309924	-0	0.922489	-0	0	0	0	-0.0003741	0	-0.000293211	0	0	0
0.54	14.8813	43.969	7.2397	0.808587	0	-0.299528	-0	1.27411	-0	0	0	0	-0.0003741	0	-0.000293211	0	0	0
0.55	0	0	0	-0.0003741	0	-0.000293211	0	0	0	0	0	0	-0.0003741	0	-0.000293211	0	0	0
0.56	0	0	0	-0.0003741	0	-0.000293211	0	0	0	0	0	0	-0.0003741	0	-0.000293211	0	0	0
0.57	0	0	0	-0.0003741	0	-0.000293211	0	0	0	0	0	0	-0.0003741	0	-0.000293211	0	0	0
0.58	0	0	0	-0.0003741	0	-0.000293211	0	0	0	0	0	0	-0.0003741	0	-0.000293211	0	0	0
0.59	0	0	0	-0.0003741	0	-0.000293211	0	0	0	0	0	0	-0.0003741	0	-0.000293211	0	0	0
0.6	0	0	0	-0.0003741	0	-0.000293211	0	0	0	-1.65164	52.4821	6.32125	1.11273	0	-0.401452	0	-0.520596	0
0.61	0	0	0	-0.0003741	0	-0.000293211	0	0	0	7.34143	162.386	13.7145	1.10223	0	-0.401845	0	-2.46551	0
0.62	0	0	0	-0.0003741	0	-0.000293211	0	0	0	25.4649	375.306	25.0617	1.09488	0	-0.397208	0	-4.20947	0
0.63	0	0	0	-0.0003741	0	-0.000293211	0	0	0	25.7188	657.748	36.1318	1.09427	0	-0.390121	0	-5.16689	0
0.64	0	0	0	-0.0003741	0	-0.000293211	0	0	0	-6.64485	890.34	38.7063	1.09972	0	-0.384363	0	-5.00907	0
0.65	0	0	0	-0.0003741	0	-0.000293211	0	0	0	-50.6308	991.928	28.9143	1.1057	0	-0.383569	0	-3.88865	0
0.66	0	0	0	-0.0003741	0	-0.000293211	0	0	0	-90.9929	1028.29	15.8743	1.10627	0	-0.386774	0	-2.38985	0
0.67	0	0	0	-0.0003741	0	-0.000293211	0	0	0	-121.337	1099.72	12.4827	1.09956	0	-0.388086	0	-1.19147	0
0.68	0	0	0	-0.0003741	0	-0.000293211	0	0	0	-134.466	1221.5	18.8855	1.08739	0	-0.386802	0	-0.693628	0
0.69	0	0	0	-0.0003741	0	-0.000293211	0	0	0	-130.18	1345.33	26.3161	1.0738	0	-0.386562	0	-0.887204	0
0.7	0	0	0	-0.0003741	0	-0.000293211	0	0	0	-116.82	1435.5	31.3762	1.06072	0	-0.387701	0	-1.48468	0
0.71	0	0	0	-0.0003741	0	-0.000293211	0	0	0	-101.02	1486.24	35.9068	1.04735	0	-0.388598	0	-2.12822	0
0.72	0	0	0	-0.0003741	0	-0.000293211	0	0	0	-85.1392	1501.54	39.5894	1.03402	0	-0.389139	0	-2.53687	0
0.73	0	0	0	-0.0003741	0	-0.000293211	0	0	0	-70.4042	1487.61	41.2144	1.02186	0	-0.389908	0	-2.56789	0
0.74	0	0	0	-0.0003741	0	-0.000293211	0	0	0	-53.0425	1455.84	41.8466	1.00956	0	-0.390558	0	-2.20127	0
0.75	0	0	0	-0.0003741	0	-0.000293211	0	0	0	-30.4829	1413.02	42.6273	0.995781	0	-0.390694	0	-1.47505	0
0.76	0	0	0	-0.0003741	0	-0.000293211	0	0	0	-7.44708	1357.2	42.478	0.981539	0	-0.390485	0	-0.429219	0
0.77	0	0	0	-0.0003741	0	-0.000293211	0	0	0	12.6567	1286.6	39.3352	0.967805	0	-0.390092	-0	0.897088	-0
0.78	0	0	0	-0.0003741	0	-0.000293211	0	0	0	31.2417	1202.46	32.4308	0.953771	0	-0.389399	-0	2.42535	-0
0.79	0	0	0	-0.0003741	0	-0.000293211	0	0	0	48.0784	1107.25	22.8615	0.939302	0	-0.388391	-0	4.00476	-0
0.8	0	0	0	-0.0003741	0	-0.000293211	0	0	0	61.3033	1005.28	12.8285	0.925218	0	-0.387145	-0	5.42668	-0
0.81	0	0	0	-0.0003741	0	-0.000293211	0	0	0	71.8895	901.72	4.34083	0.911364	0	-0.385661	-0	6.48436	-0
0.82	0	0	0	-0.0003741	0	-0.000293211	0	0	0	81.6001	800.04	-1.64745	0.896507	0	-0.383895	-0	7.04148	-0
0.83	0	0	0	-0.0003741	0	-0.000293211	0	0	0	88.7138	700.328	-5.11208	0.880982	0	-0.382097	-0	7.07255	-0
0.84	0	0	0	-0.0003741	0	-0.000293211	0	0	0	89.9629	602.214	-6.48459	0.866158	0	-0.380807	-0	6.66118	-0
0.85	0	0	0	-0.0003741	0	-0.000293211	0	0	0	85.451	508.323	-6.19328	0.852081	0	-0.380033	-0	5.96411	-0
0.86	0	0	0	-0.0003741	0	-0.000293211	0	0	0	77.8041	422.115	-4.68363	0.838409	0	-0.379408	-0	5.15887	-0
0.87	0	0	0	-0.0003741	0	-0.000293211	0	0	0	68.7388	344.863	-2.68514	0.825738	0	-0.37893	-0	4.39271	-0
0.88	0	0	0	-0.0003741	0	-0.000293211	0	0	0	60.0115	276.253	-0.951752	0.814045	0	-0.378921	-0	3.74627	-0
